<?xml version="1.0" encoding="iso-8859-1"?>
<!-- Generator: Adobe Illustrator 18.0.0, SVG Export Plug-In . SVG Version: 6.00 Build 0)  -->
<!DOCTYPE svg PUBLIC "-//W3C//DTD SVG 1.1//EN" "http://www.w3.org/Graphics/SVG/1.1/DTD/svg11.dtd">
<svg xmlns="http://www.w3.org/2000/svg" xmlns:xlink="http://www.w3.org/1999/xlink" version="1.1" id="Capa_1" x="0px" y="0px" viewBox="0 0 456.18 456.18" style="enable-background:new 0 0 456.18 456.18;" xml:space="preserve" width="512px" height="512px">
<g>
	<path d="M227.528,40.118h1.125c8.052,0,16.11,0.765,23.952,2.275c0.479,0.092,0.956,0.137,1.426,0.137   c3.524,0,6.666-2.495,7.357-6.084c0.782-4.067-1.88-8-5.947-8.782c-8.774-1.689-17.787-2.545-26.788-2.545h-1.125   c-4.142,0-7.5,3.358-7.5,7.5S223.386,40.118,227.528,40.118z" fill="#D80027"/>
	<path d="M278.37,50.304c35.151,15.094,62.158,46.067,72.243,82.852c0.914,3.331,3.935,5.519,7.229,5.519   c0.656,0,1.323-0.087,1.987-0.269c3.994-1.095,6.345-5.221,5.25-9.216c-11.281-41.147-41.484-75.79-80.792-92.669   c-3.807-1.634-8.217,0.126-9.851,3.932C272.804,44.259,274.564,48.669,278.37,50.304z" fill="#D80027"/>
	<path d="M357.526,179.363c-7.558-25.544-34.49-40.175-60.032-32.616l-49.159,14.547c-3.972,1.175-6.239,5.348-5.063,9.32   c6.125,20.701,19.944,37.777,38.914,48.083c12.012,6.526,25.176,9.843,38.474,9.843c7.702,0,15.45-1.113,23.042-3.36h0.001   c6.726-1.99,12.272-6.48,15.621-12.642c3.348-6.163,4.096-13.26,2.105-19.985L357.526,179.363z M346.142,205.376   c-1.436,2.642-3.813,4.567-6.697,5.42c0,0,0,0,0,0c-16.86,4.989-34.65,3.113-50.1-5.28c-13.229-7.188-23.384-18.42-29.16-32.086   l41.564-12.3c17.614-5.21,36.182,4.877,41.394,22.489l3.902,13.189C347.898,199.691,347.578,202.734,346.142,205.376z" fill="#D80027"/>
	<path d="M112.479,225.179c7.593,2.247,15.339,3.36,23.042,3.36c13.297,0,26.463-3.317,38.474-9.843   c18.969-10.306,32.789-27.382,38.914-48.083c1.175-3.972-1.092-8.144-5.064-9.32l-49.16-14.547   c-12.371-3.661-25.432-2.285-36.771,3.875c-11.338,6.16-19.599,16.368-23.261,28.741l-3.903,13.189   C90.644,206.435,98.596,221.071,112.479,225.179z M109.135,196.808l3.903-13.189c2.524-8.531,8.22-15.57,16.038-19.817   c4.951-2.69,10.376-4.057,15.857-4.057c3.174,0,6.368,0.459,9.497,1.385l41.565,12.3c-5.777,13.666-15.932,24.898-29.161,32.086   c-15.449,8.394-33.241,10.268-50.1,5.28C110.783,209.034,107.374,202.76,109.135,196.808z" fill="#D80027"/>
	<path d="M234.585,196.907c-1.34-2.321-3.816-3.75-6.496-3.75c-2.68,0-5.155,1.429-6.495,3.75l-17.333,30.021   c-3.292,5.703-3.292,12.512,0,18.215c3.293,5.703,9.19,9.107,15.775,9.107h16.106c6.586,0,12.483-3.405,15.775-9.108   s3.292-12.512-0.001-18.215L234.585,196.907z M238.928,237.643c-0.347,0.601-1.17,1.608-2.785,1.608h-16.106   c-1.615,0-2.438-1.007-2.784-1.607c-0.347-0.601-0.808-1.817,0-3.215l10.837-18.771l10.837,18.771c0,0,0,0,0,0   C239.735,235.827,239.274,237.043,238.928,237.643z" fill="#D80027"/>
	<path d="M90.022,305.444c10.796,0,20.978-3.781,29.016-10.595c6.761,10.018,10.417,21.858,10.417,34.073v9.941   c0,4.142,3.358,7.5,7.5,7.5h182.27c4.143,0,7.5-3.358,7.5-7.5v-9.941c0-12.215,3.656-24.055,10.416-34.073   c8.039,6.814,18.221,10.595,29.017,10.595c24.815,0,45.004-20.188,45.004-45.004c0-13.278-5.898-25.847-15.955-34.36v-59.526   c0-44.597-17.397-86.495-48.987-117.977C314.769,17.237,273.042,0,228.708,0c-0.395,0-0.792,0-1.185,0   c-44.383,0-86.114,17.239-117.562,48.578c-31.59,31.481-48.988,73.379-48.988,117.976v59.526   c-10.056,8.512-15.955,21.082-15.955,34.36C45.019,285.255,65.207,305.444,90.022,305.444z M72.789,235.888   c1.997-1.405,3.185-3.693,3.185-6.134v-63.2c0-40.581,15.831-78.705,44.576-107.351C149.167,30.684,187.136,15,227.576,15   c0.179,0,0.362,0,0.541,0.001c40.556-0.134,78.771,15.557,107.514,44.202c28.745,28.646,44.576,66.771,44.576,107.352v63.2   c0,2.441,1.188,4.729,3.185,6.134c7.996,5.626,12.771,14.805,12.771,24.552c0,16.544-13.46,30.004-30.004,30.004   c-9.323,0-17.961-4.234-23.699-11.618c-1.367-1.759-3.446-2.819-5.673-2.893c-2.194-0.072-4.371,0.845-5.853,2.511   c-12.387,13.923-19.208,31.849-19.208,50.478v2.441h-25.872v-25.541c0-4.142-3.357-7.5-7.5-7.5s-7.5,3.358-7.5,7.5v25.541h-35.264   v-25.541c0-4.142-3.357-7.5-7.5-7.5s-7.5,3.358-7.5,7.5v25.541h-35.263v-25.541c0-4.142-3.358-7.5-7.5-7.5s-7.5,3.358-7.5,7.5   v25.541h-25.872v-2.441c0-18.629-6.822-36.555-19.208-50.478c-1.481-1.665-3.618-2.582-5.853-2.511   c-2.227,0.074-4.305,1.134-5.673,2.893c-5.738,7.383-14.376,11.618-23.699,11.618c-16.544,0-30.003-13.459-30.003-30.004   C60.019,250.692,64.793,241.514,72.789,235.888z" fill="#D80027"/>
	<path d="M422.116,364.534c0-22.744-18.504-41.248-41.248-41.248s-41.248,18.504-41.248,41.248c0,0.15,0.001,0.3,0.003,0.45H116.558   c0.001-0.15,0.002-0.3,0.002-0.45c0-22.744-18.504-41.248-41.249-41.248c-22.744,0-41.248,18.504-41.248,41.248   c0,9.175,3.072,18.031,8.602,25.199c-5.53,7.167-8.602,16.024-8.602,25.199c0,22.744,18.504,41.248,41.248,41.248   c22.745,0,41.249-18.504,41.249-41.248c0-0.15-0.001-0.3-0.002-0.449h223.064c-0.002,0.15-0.003,0.3-0.003,0.449   c0,22.744,18.504,41.248,41.248,41.248s41.248-18.504,41.248-41.248c0-9.175-3.072-18.031-8.602-25.199   C419.043,382.565,422.116,373.709,422.116,364.534z M398.318,395.332c5.591,4.983,8.798,12.126,8.798,19.6   c0,14.473-11.774,26.248-26.248,26.248s-26.248-11.775-26.248-26.248c0-2.065,0.25-4.146,0.743-6.185   c0.541-2.235,0.027-4.595-1.395-6.402c-1.423-1.807-3.595-2.862-5.895-2.862H108.106c-2.3,0-4.472,1.055-5.894,2.862   c-1.422,1.807-1.937,4.167-1.396,6.402c0.494,2.04,0.744,4.121,0.744,6.185c0,14.473-11.775,26.248-26.249,26.248   c-14.473,0-26.248-11.775-26.248-26.248c0-7.473,3.207-14.617,8.798-19.599c1.597-1.423,2.51-3.46,2.51-5.599   c0-2.139-0.913-4.176-2.51-5.599c-5.591-4.983-8.798-12.126-8.798-19.599c0-14.473,11.775-26.248,26.248-26.248   c14.474,0,26.249,11.775,26.249,26.248c0,2.063-0.25,4.144-0.745,6.187c-0.54,2.235-0.026,4.594,1.396,6.401   c1.422,1.807,3.594,2.862,5.894,2.862h239.967c2.3,0,4.472-1.055,5.895-2.862c1.422-1.807,1.936-4.167,1.396-6.402   c-0.494-2.039-0.744-4.12-0.744-6.186c0-14.473,11.774-26.248,26.248-26.248s26.248,11.775,26.248,26.248   c0,7.473-3.207,14.617-8.798,19.6c-1.597,1.423-2.51,3.46-2.51,5.599S396.721,393.909,398.318,395.332z" fill="#D80027"/>
</g>
<g>
</g>
<g>
</g>
<g>
</g>
<g>
</g>
<g>
</g>
<g>
</g>
<g>
</g>
<g>
</g>
<g>
</g>
<g>
</g>
<g>
</g>
<g>
</g>
<g>
</g>
<g>
</g>
<g>
</g>
</svg>
