<?xml version="1.0" encoding="utf-8"?>
<!-- Generator: Adobe Illustrator 19.2.1, SVG Export Plug-In . SVG Version: 6.00 Build 0)  -->
<svg version="1.1" id="Capa_1" xmlns="http://www.w3.org/2000/svg" xmlns:xlink="http://www.w3.org/1999/xlink" x="0px" y="0px"
	 viewBox="0 0 512 512" style="enable-background:new 0 0 512 512;" xml:space="preserve">
<style type="text/css">
	.st0{fill:#666666;}
</style>
<g>
	<g>
		<path class="st0" d="M135.8,121.6c-3.9-3.9-10.2-3.9-14.1,0c-3.9,3.9-3.9,10.2,0,14.1c3.9,3.9,10.2,3.9,14.1,0
			C139.7,131.9,139.7,125.5,135.8,121.6z"/>
	</g>
</g>
<g>
	<g>
		<path class="st0" d="M285.2,370.1c-1.9,4-2.9,8.4-2.9,12.9c0,8,3.1,15.6,8.8,21.2c5.7,5.7,13.2,8.8,21.2,8.8s15.5-3.1,21.2-8.8
			l8.3-8.3c1.5,3,3.4,5.8,5.9,8.3c5.4,5.4,12.4,8.3,19.5,8.7c0.4,7.4,3.5,14.3,8.8,19.6c5.3,5.3,12.2,8.3,19.5,8.7
			c0.4,7.4,3.5,14.3,8.7,19.6c2.8,2.8,5.9,4.9,9.3,6.3c-2.6,4.5-4,9.6-4,14.9c0,8,3.1,15.6,8.8,21.2c5.7,5.7,13.2,8.8,21.2,8.8
			c8,0,15.5-3.1,21.2-8.8l42.4-42.4c5.7-5.7,8.8-13.2,8.8-21.2c0-8-3.1-15.5-8.8-21.2c-5.7-5.7-13.2-8.8-21.2-8.8
			c-5.3,0-10.4,1.4-14.9,3.9c-1.5-3.4-3.6-6.6-6.3-9.3c-5.3-5.3-12.2-8.3-19.5-8.7c-0.4-7.4-3.5-14.3-8.7-19.5
			c-5.3-5.3-12.2-8.3-19.5-8.7c-0.4-7.4-3.5-14.3-8.7-19.5c-2.5-2.5-5.3-4.4-8.3-5.8l8.3-8.3c5.7-5.7,8.8-13.2,8.8-21.2
			c0-8-3.1-15.6-8.8-21.2c-5.7-5.7-13.2-8.8-21.2-8.8c-4.6,0-9,1-12.9,2.9L109,24.1c-1.3-1.3-3-2.3-4.8-2.7L12.2,0.3
			c0,0-0.1,0-0.1,0C11.8,0.2,11.4,0.1,11,0c0,0,0,0,0,0c-0.4,0-0.8,0-1.2,0C9.7,0,9.6,0,9.5,0c-0.3,0-0.6,0-0.9,0.1
			c-0.1,0-0.2,0-0.3,0C8,0.2,7.6,0.3,7.3,0.4c0,0,0,0-0.1,0C6.8,0.5,6.5,0.6,6.1,0.8c-0.1,0-0.1,0-0.2,0.1C5.6,1,5.4,1.1,5.1,1.3
			C5,1.4,4.9,1.4,4.8,1.5C4.6,1.6,4.3,1.8,4.1,2C4,2,3.9,2.1,3.8,2.1C3.5,2.4,3.2,2.6,2.9,2.9C2.6,3.2,2.4,3.5,2.1,3.8
			C2.1,3.9,2,4,2,4.1C1.8,4.3,1.6,4.5,1.5,4.8C1.4,4.9,1.4,5,1.3,5.1C1.1,5.4,1,5.6,0.9,5.9C0.8,6,0.8,6,0.8,6.1
			C0.6,6.5,0.5,6.8,0.4,7.2c0,0,0,0.1,0,0.1C0.3,7.7,0.2,8,0.1,8.3c0,0.1,0,0.2,0,0.3C0.1,8.9,0,9.2,0,9.5c0,0.1,0,0.2,0,0.3
			c0,0.4,0,0.8,0,1.1c0,0,0,0.1,0,0.1c0,0.4,0.1,0.7,0.2,1.1c0,0,0,0.1,0,0.1l21.2,91.9c0.4,1.8,1.3,3.5,2.7,4.8L285.2,370.1z
			 M326.7,241.9l-21.2-21.2 M192.4,248.9L40.3,96.9L27.6,41.7l65.8,65.8c2,2,4.5,2.9,7.1,2.9s5.1-1,7.1-2.9c3.9-3.9,3.9-10.2,0-14.1
			L41.7,27.6l55.2,12.7l152,152c0,0,0,0,0,0s0,0,0,0l70.7,70.7c0,0,0,0,0,0s0,0,0,0l35.1,35.1l-21.2,21.2L164.7,150.6
			c-3.9-3.9-10.2-3.9-14.1,0c-3.9,3.9-3.9,10.2,0,14.1l168.8,168.8l-21.2,21.2L192.4,248.9z M347.6,361.8c-0.1,0.1-0.2,0.2-0.2,0.3
			l-28,28c-1.9,1.9-4.4,2.9-7.1,2.9c-2.7,0-5.2-1-7.1-2.9c-1.9-1.9-2.9-4.4-2.9-7.1c0-2.7,1-5.2,2.9-7.1c0,0,0,0,0,0s0,0,0,0
			l35.3-35.3c0,0,0.1-0.1,0.1-0.1c0,0,0.1-0.1,0.1-0.1l35.3-35.3c0,0,0,0,0,0c1.9-1.9,4.4-2.9,7.1-2.9c2.7,0,5.2,1,7.1,2.9
			c1.9,1.9,2.9,4.4,2.9,7.1c0,2.7-1,5.2-2.9,7.1l-28,28c-0.1,0.1-0.2,0.2-0.3,0.3L347.6,361.8z M375.9,390.1
			C375.9,390.1,375.9,390.1,375.9,390.1c-3.9,3.9-10.3,3.9-14.1,0c-1.9-1.9-2.9-4.4-2.9-7.1c0-2.6,1-5.1,2.8-6.9l14.4-14.4
			c3.9-3.8,10.2-3.7,14,0.1c1.9,1.9,2.9,4.4,2.9,7.1c0,2.7-1,5.2-2.9,7.1c0,0,0,0,0,0c0,0,0,0,0,0L375.9,390.1
			C375.9,390.1,375.9,390.1,375.9,390.1z M404.2,418.4c-1.9,1.9-4.4,2.9-7.1,2.9s-5.2-1-7.1-2.9c-1.9-1.9-2.9-4.4-2.9-7.1
			s1-5.2,2.9-7.1l14.1-14.1c0,0,0,0,0,0c1.9-1.9,4.4-2.9,7.1-2.9s5.2,1,7.1,2.9c1.9,1.9,2.9,4.4,2.9,7.1c0,2.7-1,5.2-2.9,7.1
			c0,0,0,0,0,0c0,0,0,0,0,0L404.2,418.4z M418.4,446.6c-1.9-1.9-2.9-4.4-2.9-7.1s1-5.2,2.9-7.1c0,0,0,0,0,0l14.1-14.1
			c1.9-1.9,4.4-2.9,7.1-2.9c2.7,0,5.2,1,7.1,2.9c1.9,1.9,2.9,4.4,2.9,7.1c0,2.7-1,5.2-2.9,7.1l0,0c0,0,0,0,0,0l-14.2,14.2
			C428.6,450.5,422.3,450.5,418.4,446.6z M489.1,446.6l-42.4,42.4c-1.9,1.9-4.4,2.9-7.1,2.9c-2.7,0-5.2-1-7.1-2.9
			c-1.9-1.9-2.9-4.4-2.9-7.1s1-5.2,2.9-7.1l14.1-14.1c0,0,0,0,0,0c0,0,0,0,0,0l14.1-14.1l14.1-14.1c1.9-1.9,4.4-2.9,7.1-2.9
			s5.2,1,7.1,2.9c1.9,1.9,2.9,4.4,2.9,7.1C492,442.2,491,444.8,489.1,446.6z"/>
	</g>
</g>
</svg>
